<svg width="1392" height="567" viewBox="0 0 1392 567" fill="none" xmlns="http://www.w3.org/2000/svg">
<path d="M379.12 107.483C385.987 107.483 392.087 103.103 394.281 96.5967L423.188 10.8868C425.382 4.38075 431.483 0 438.349 0H1376C1384.84 0 1392 7.16344 1392 16V425C1392 433.837 1384.84 441 1376 441H1084.19H792.386C783.549 441 776.386 448.163 776.386 457L776.386 551C776.386 559.837 769.223 567 760.386 567H16C7.16345 567 0 559.837 0 551V123.483C0 114.647 7.16344 107.483 16 107.483H379.12Z" fill="black"/>
</svg>
